<svg xmlns="http://www.w3.org/2000/svg" xmlns:xlink="http://www.w3.org/1999/xlink" width="500" zoomAndPan="magnify" viewBox="0 0 375 374.999991" height="500" preserveAspectRatio="xMidYMid meet" version="1.0"><defs><clipPath id="9bd32a7eae"><path d="M 191 11.539062 L 226 11.539062 L 226 41 L 191 41 Z M 191 11.539062 " clip-rule="nonzero"/></clipPath><clipPath id="01566a0c1d"><path d="M 5.863281 131 L 94 131 L 94 208 L 5.863281 208 Z M 5.863281 131 " clip-rule="nonzero"/></clipPath><clipPath id="3934760aaa"><path d="M 366 169 L 368.863281 169 L 368.863281 172 L 366 172 Z M 366 169 " clip-rule="nonzero"/></clipPath><clipPath id="fe98784b1f"><path d="M 332 360 L 336 360 L 336 363.289062 L 332 363.289062 Z M 332 360 " clip-rule="nonzero"/></clipPath><clipPath id="8c49bf15cf"><path d="M 306 360 L 310 360 L 310 363.289062 L 306 363.289062 Z M 306 360 " clip-rule="nonzero"/></clipPath></defs><path fill="#da0063" d="M 182.289062 338.371094 L 138.683594 338.371094 L 138.652344 338.316406 L 116.878906 300.609375 L 116.914062 300.550781 L 138.679688 262.84375 L 182.285156 262.84375 L 182.316406 262.902344 L 204.089844 300.609375 L 204.054688 300.664062 Z M 138.816406 338.144531 L 182.160156 338.144531 L 203.828125 300.609375 L 182.160156 263.074219 L 138.816406 263.074219 L 117.144531 300.609375 Z M 138.816406 338.144531 " fill-opacity="1" fill-rule="nonzero"/><path fill="#da0063" d="M 240.3125 266.761719 L 212.429688 266.761719 L 212.394531 266.703125 L 198.488281 242.613281 L 198.519531 242.554688 L 212.429688 218.460938 L 240.3125 218.460938 L 240.34375 218.519531 L 254.253906 242.613281 L 254.222656 242.667969 Z M 212.558594 266.535156 L 240.183594 266.535156 L 253.996094 242.613281 L 240.183594 218.6875 L 212.558594 218.6875 L 198.75 242.613281 Z M 212.558594 266.535156 " fill-opacity="1" fill-rule="nonzero"/><path fill="#da0063" d="M 238.714844 326.355469 L 224.710938 326.355469 L 224.675781 326.296875 L 217.707031 314.222656 L 224.710938 302.09375 L 238.71875 302.09375 L 238.75 302.152344 L 245.722656 314.222656 Z M 224.839844 326.128906 L 238.585938 326.128906 L 245.457031 314.222656 L 238.585938 302.320312 L 224.839844 302.320312 L 217.964844 314.222656 Z M 224.839844 326.128906 " fill-opacity="1" fill-rule="nonzero"/><path fill="#da0063" d="M 167.523438 201.492188 L 123.917969 201.492188 L 123.886719 201.4375 L 102.117188 163.730469 L 102.148438 163.671875 L 123.917969 125.964844 L 167.523438 125.964844 L 167.554688 126.023438 L 189.324219 163.730469 L 189.292969 163.785156 Z M 124.050781 201.265625 L 167.394531 201.265625 L 189.066406 163.730469 L 167.394531 126.191406 L 124.050781 126.191406 L 102.382812 163.730469 Z M 124.050781 201.265625 " fill-opacity="1" fill-rule="nonzero"/><path fill="#da0063" d="M 225.550781 129.882812 L 197.664062 129.882812 L 197.632812 129.824219 L 183.722656 105.730469 L 183.753906 105.675781 L 197.664062 81.582031 L 225.550781 81.582031 L 225.582031 81.636719 L 239.492188 105.730469 L 239.460938 105.789062 Z M 197.796875 129.65625 L 225.417969 129.65625 L 239.230469 105.730469 L 225.417969 81.808594 L 197.796875 81.808594 L 183.984375 105.730469 Z M 197.796875 129.65625 " fill-opacity="1" fill-rule="nonzero"/><path fill="#da0063" d="M 223.957031 189.476562 L 209.945312 189.476562 L 209.914062 189.417969 L 202.941406 177.34375 L 209.949219 165.214844 L 223.957031 165.214844 L 223.988281 165.269531 L 230.960938 177.34375 Z M 210.078125 189.25 L 223.824219 189.25 L 230.695312 177.34375 L 223.824219 165.441406 L 210.078125 165.441406 L 203.203125 177.34375 Z M 210.078125 189.25 " fill-opacity="1" fill-rule="nonzero"/><path fill="#da0063" d="M 228.050781 232.097656 L 209.6875 232.097656 L 209.65625 232.042969 L 200.507812 216.199219 L 209.691406 200.296875 L 228.050781 200.296875 L 228.085938 200.351562 L 237.230469 216.199219 Z M 209.816406 231.871094 L 227.917969 231.871094 L 236.96875 216.199219 L 227.917969 200.523438 L 209.816406 200.523438 L 200.769531 216.199219 Z M 209.816406 231.871094 " fill-opacity="1" fill-rule="nonzero"/><path fill="#da0063" d="M 252.378906 202.070312 L 240.609375 202.070312 L 240.578125 202.011719 L 234.722656 191.875 L 240.609375 181.683594 L 252.378906 181.683594 L 252.410156 181.738281 L 258.265625 191.875 Z M 240.742188 201.839844 L 252.25 201.839844 L 258.003906 191.875 L 252.25 181.910156 L 240.742188 181.910156 L 234.988281 191.875 Z M 240.742188 201.839844 " fill-opacity="1" fill-rule="nonzero"/><path fill="#da0063" d="M 251.714844 227.058594 L 245.761719 227.058594 L 245.730469 227.003906 L 242.789062 221.90625 L 245.765625 216.753906 L 251.714844 216.753906 L 251.746094 216.808594 L 254.6875 221.90625 Z M 245.894531 226.832031 L 251.582031 226.832031 L 254.425781 221.90625 L 251.582031 216.980469 L 245.894531 216.980469 L 243.050781 221.90625 Z M 245.894531 226.832031 " fill-opacity="1" fill-rule="nonzero"/><path fill="#da0063" d="M 181.917969 83.386719 L 155.773438 83.386719 L 155.742188 83.328125 L 142.703125 60.746094 L 142.734375 60.6875 L 155.773438 38.105469 L 181.917969 38.105469 L 181.949219 38.160156 L 194.988281 60.746094 L 194.957031 60.800781 Z M 155.902344 83.15625 L 181.785156 83.15625 L 194.726562 60.746094 L 181.785156 38.332031 L 155.902344 38.332031 L 142.960938 60.746094 Z M 155.902344 83.15625 " fill-opacity="1" fill-rule="nonzero"/><g clip-path="url(#9bd32a7eae)"><path fill="#da0063" d="M 216.632812 40.535156 L 199.894531 40.535156 L 199.863281 40.480469 L 191.527344 26.042969 L 199.894531 11.542969 L 216.632812 11.542969 L 216.664062 11.601562 L 225.003906 26.039062 Z M 200.027344 40.308594 L 216.5 40.308594 L 224.738281 26.042969 L 216.503906 11.773438 L 200.03125 11.773438 L 191.792969 26.039062 L 200.03125 40.304688 Z M 200.027344 40.308594 " fill-opacity="1" fill-rule="nonzero"/></g><path fill="#da0063" d="M 215.679688 76.191406 L 207.246094 76.191406 L 207.214844 76.136719 L 203.027344 68.886719 L 207.246094 61.582031 L 215.679688 61.582031 L 215.710938 61.640625 L 219.898438 68.886719 Z M 207.375 75.964844 L 215.546875 75.964844 L 219.632812 68.886719 L 215.546875 61.808594 L 207.375 61.808594 L 203.292969 68.886719 Z M 207.375 75.964844 " fill-opacity="1" fill-rule="nonzero"/><g clip-path="url(#01566a0c1d)"><path fill="#da0063" d="M 71.273438 207.003906 L 27.667969 207.003906 L 27.632812 206.945312 L 5.863281 169.242188 L 5.894531 169.183594 L 27.667969 131.476562 L 71.273438 131.476562 L 71.304688 131.535156 L 93.074219 169.242188 L 93.042969 169.300781 L 71.273438 207.007812 Z M 27.796875 206.777344 L 71.140625 206.777344 L 92.8125 169.238281 L 71.140625 131.703125 L 27.796875 131.703125 L 6.125 169.242188 Z M 27.796875 206.777344 " fill-opacity="1" fill-rule="nonzero"/></g><path fill="#da0063" d="M 129.296875 135.394531 L 101.410156 135.394531 L 101.378906 135.335938 L 87.46875 111.242188 L 87.5 111.1875 L 101.410156 87.09375 L 129.296875 87.09375 L 129.328125 87.148438 L 143.238281 111.242188 L 143.207031 111.300781 Z M 101.542969 135.164062 L 129.167969 135.164062 L 142.976562 111.242188 L 129.167969 87.320312 L 101.542969 87.320312 L 87.730469 111.242188 Z M 101.542969 135.164062 " fill-opacity="1" fill-rule="nonzero"/><path fill="#da0063" d="M 127.699219 194.988281 L 113.691406 194.988281 L 113.660156 194.929688 L 106.6875 182.855469 L 113.691406 170.726562 L 127.703125 170.726562 L 127.734375 170.78125 L 134.703125 182.855469 Z M 113.820312 194.757812 L 127.566406 194.757812 L 134.441406 182.855469 L 127.566406 170.953125 L 113.820312 170.953125 L 106.949219 182.855469 Z M 113.820312 194.757812 " fill-opacity="1" fill-rule="nonzero"/><path fill="#da0063" d="M 234.207031 219.011719 L 233.609375 217.972656 L 232.414062 217.972656 L 232.414062 217.519531 L 233.875 217.519531 L 234.601562 218.78125 Z M 234.207031 219.011719 " fill-opacity="1" fill-rule="nonzero"/><path fill="#da0063" d="M 229.628906 217.972656 L 226.761719 217.972656 L 226.761719 217.519531 L 229.628906 217.519531 Z M 223.898438 217.972656 L 221.03125 217.972656 L 221.03125 217.519531 L 223.898438 217.519531 Z M 218.164062 217.972656 L 215.296875 217.972656 L 215.296875 217.519531 L 218.164062 217.519531 Z M 218.164062 217.972656 " fill-opacity="1" fill-rule="nonzero"/><path fill="#da0063" d="M 211.121094 219.011719 L 210.730469 218.78125 L 211.457031 217.519531 L 212.917969 217.519531 L 212.917969 217.972656 L 211.722656 217.972656 Z M 211.121094 219.011719 " fill-opacity="1" fill-rule="nonzero"/><path fill="#da0063" d="M 202.5625 233.863281 L 202.167969 233.632812 L 203.601562 231.148438 L 203.996094 231.375 Z M 205.429688 228.886719 L 205.035156 228.660156 L 206.46875 226.175781 L 206.863281 226.402344 Z M 208.296875 223.914062 L 207.902344 223.6875 L 209.335938 221.199219 L 209.730469 221.429688 Z M 208.296875 223.914062 " fill-opacity="1" fill-rule="nonzero"/><path fill="#da0063" d="M 200.976562 238.226562 L 200.25 236.964844 L 200.976562 235.699219 L 201.371094 235.925781 L 200.773438 236.964844 L 201.371094 238 Z M 200.976562 238.226562 " fill-opacity="1" fill-rule="nonzero"/><path fill="#da0063" d="M 209.539062 253.078125 L 208.105469 250.59375 L 208.5 250.367188 L 209.933594 252.851562 Z M 206.671875 248.105469 L 205.238281 245.621094 L 205.632812 245.390625 L 207.066406 247.878906 Z M 203.804688 243.132812 L 202.371094 240.644531 L 202.765625 240.417969 L 204.199219 242.90625 Z M 203.804688 243.132812 " fill-opacity="1" fill-rule="nonzero"/><path fill="#da0063" d="M 212.917969 256.410156 L 211.457031 256.410156 L 210.730469 255.144531 L 211.121094 254.917969 L 211.722656 255.953125 L 212.917969 255.953125 Z M 212.917969 256.410156 " fill-opacity="1" fill-rule="nonzero"/><path fill="#da0063" d="M 230.035156 256.410156 L 227.167969 256.410156 L 227.167969 255.953125 L 230.035156 255.953125 Z M 224.300781 256.410156 L 221.433594 256.410156 L 221.433594 255.953125 L 224.300781 255.953125 Z M 218.570312 256.410156 L 215.703125 256.410156 L 215.703125 255.953125 L 218.570312 255.953125 Z M 218.570312 256.410156 " fill-opacity="1" fill-rule="nonzero"/><path fill="#da0063" d="M 233.875 256.410156 L 232.414062 256.410156 L 232.414062 255.953125 L 233.609375 255.953125 L 234.207031 254.917969 L 234.601562 255.144531 Z M 233.875 256.410156 " fill-opacity="1" fill-rule="nonzero"/><path fill="#da0063" d="M 235.996094 252.730469 L 235.601562 252.5 L 237.035156 250.015625 L 237.425781 250.242188 Z M 238.863281 247.753906 L 238.46875 247.527344 L 239.902344 245.042969 L 240.292969 245.269531 Z M 241.730469 242.78125 L 241.335938 242.554688 L 242.769531 240.066406 L 243.160156 240.296875 Z M 241.730469 242.78125 " fill-opacity="1" fill-rule="nonzero"/><path fill="#da0063" d="M 244.351562 238.226562 L 243.957031 238 L 244.554688 236.964844 L 243.957031 235.925781 L 244.351562 235.699219 L 245.082031 236.964844 Z M 244.351562 238.226562 " fill-opacity="1" fill-rule="nonzero"/><path fill="#da0063" d="M 242.566406 233.511719 L 241.132812 231.023438 L 241.527344 230.796875 L 242.960938 233.285156 Z M 239.699219 228.539062 L 238.265625 226.050781 L 238.660156 225.824219 L 240.09375 228.308594 Z M 236.832031 223.5625 L 235.398438 221.078125 L 235.792969 220.851562 L 237.226562 223.335938 Z M 236.832031 223.5625 " fill-opacity="1" fill-rule="nonzero"/><path fill="#da0063" d="M 211.554688 219.007812 C 213.121094 219.007812 213.121094 216.574219 211.554688 216.574219 C 209.984375 216.574219 209.984375 219.007812 211.554688 219.007812 Z M 211.554688 219.007812 " fill-opacity="1" fill-rule="nonzero"/><path fill="#da0063" d="M 233.738281 218.910156 C 235.304688 218.910156 235.308594 216.476562 233.738281 216.476562 C 232.167969 216.476562 232.167969 218.910156 233.738281 218.910156 Z M 233.738281 218.910156 " fill-opacity="1" fill-rule="nonzero"/><path fill="#da0063" d="M 244.78125 237.996094 C 246.347656 237.996094 246.351562 235.5625 244.78125 235.5625 C 243.210938 235.5625 243.210938 237.996094 244.78125 237.996094 Z M 244.78125 237.996094 " fill-opacity="1" fill-rule="nonzero"/><path fill="#da0063" d="M 233.542969 257.382812 C 235.109375 257.382812 235.113281 254.949219 233.542969 254.949219 C 231.972656 254.949219 231.972656 257.382812 233.542969 257.382812 Z M 233.542969 257.382812 " fill-opacity="1" fill-rule="nonzero"/><path fill="#da0063" d="M 211.457031 257.480469 C 213.023438 257.480469 213.023438 255.046875 211.457031 255.046875 C 209.886719 255.046875 209.886719 257.480469 211.457031 257.480469 Z M 211.457031 257.480469 " fill-opacity="1" fill-rule="nonzero"/><path fill="#da0063" d="M 200.414062 238.292969 C 201.980469 238.292969 201.980469 235.855469 200.414062 235.855469 C 198.84375 235.855469 198.84375 238.292969 200.414062 238.292969 Z M 200.414062 238.292969 " fill-opacity="1" fill-rule="nonzero"/><path fill="#da0063" d="M 356.988281 152.886719 L 356.390625 151.851562 L 355.195312 151.851562 L 355.195312 151.394531 L 356.652344 151.394531 L 357.378906 152.660156 Z M 356.988281 152.886719 " fill-opacity="1" fill-rule="nonzero"/><path fill="#da0063" d="M 352.40625 151.851562 L 349.539062 151.851562 L 349.539062 151.394531 L 352.40625 151.394531 Z M 346.675781 151.851562 L 343.808594 151.851562 L 343.808594 151.394531 L 346.675781 151.394531 Z M 340.941406 151.851562 L 338.074219 151.851562 L 338.074219 151.394531 L 340.941406 151.394531 Z M 340.941406 151.851562 " fill-opacity="1" fill-rule="nonzero"/><path fill="#da0063" d="M 333.902344 152.886719 L 333.507812 152.660156 L 334.238281 151.394531 L 335.695312 151.394531 L 335.695312 151.851562 L 334.5 151.851562 Z M 333.902344 152.886719 " fill-opacity="1" fill-rule="nonzero"/><path fill="#da0063" d="M 325.339844 167.742188 L 324.949219 167.515625 L 326.378906 165.027344 L 326.773438 165.253906 Z M 328.207031 162.769531 L 327.816406 162.539062 L 329.246094 160.054688 L 329.640625 160.28125 Z M 331.074219 157.792969 L 330.683594 157.566406 L 332.113281 155.082031 L 332.507812 155.308594 Z M 331.074219 157.792969 " fill-opacity="1" fill-rule="nonzero"/><path fill="#da0063" d="M 323.757812 172.105469 L 323.027344 170.839844 L 323.757812 169.578125 L 324.152344 169.804688 L 323.554688 170.839844 L 324.152344 171.878906 Z M 323.757812 172.105469 " fill-opacity="1" fill-rule="nonzero"/><path fill="#da0063" d="M 332.316406 186.960938 L 330.882812 184.472656 L 331.277344 184.246094 L 332.710938 186.730469 Z M 329.449219 181.984375 L 328.015625 179.5 L 328.410156 179.273438 L 329.84375 181.757812 Z M 326.582031 177.011719 L 325.148438 174.527344 L 325.542969 174.296875 L 326.976562 176.785156 Z M 326.582031 177.011719 " fill-opacity="1" fill-rule="nonzero"/><path fill="#da0063" d="M 335.695312 190.285156 L 334.238281 190.285156 L 333.507812 189.023438 L 333.902344 188.796875 L 334.5 189.832031 L 335.695312 189.832031 Z M 335.695312 190.285156 " fill-opacity="1" fill-rule="nonzero"/><path fill="#da0063" d="M 352.816406 190.285156 L 349.949219 190.285156 L 349.949219 189.832031 L 352.816406 189.832031 Z M 347.082031 190.285156 L 344.214844 190.285156 L 344.214844 189.832031 L 347.082031 189.832031 Z M 341.347656 190.285156 L 338.480469 190.285156 L 338.480469 189.832031 L 341.347656 189.832031 Z M 341.347656 190.285156 " fill-opacity="1" fill-rule="nonzero"/><path fill="#da0063" d="M 356.652344 190.285156 L 355.195312 190.285156 L 355.195312 189.832031 L 356.390625 189.832031 L 356.988281 188.796875 L 357.378906 189.023438 Z M 356.652344 190.285156 " fill-opacity="1" fill-rule="nonzero"/><path fill="#da0063" d="M 358.773438 186.605469 L 358.378906 186.378906 L 359.8125 183.890625 L 360.207031 184.121094 Z M 361.640625 181.632812 L 361.246094 181.40625 L 362.679688 178.917969 L 363.074219 179.144531 Z M 364.507812 176.660156 L 364.113281 176.433594 L 365.546875 173.945312 L 365.941406 174.171875 Z M 364.507812 176.660156 " fill-opacity="1" fill-rule="nonzero"/><path fill="#da0063" d="M 367.132812 172.105469 L 366.738281 171.878906 L 367.335938 170.839844 L 366.738281 169.804688 L 367.132812 169.578125 L 367.859375 170.839844 Z M 367.132812 172.105469 " fill-opacity="1" fill-rule="nonzero"/><path fill="#da0063" d="M 365.34375 167.390625 L 363.910156 164.902344 L 364.304688 164.675781 L 365.738281 167.160156 Z M 362.476562 162.414062 L 361.042969 159.929688 L 361.4375 159.699219 L 362.871094 162.1875 Z M 359.609375 157.441406 L 358.175781 154.953125 L 358.570312 154.726562 L 360.003906 157.214844 Z M 359.609375 157.441406 " fill-opacity="1" fill-rule="nonzero"/><path fill="#da0063" d="M 334.332031 152.886719 C 335.898438 152.886719 335.902344 150.449219 334.332031 150.449219 C 332.761719 150.449219 332.761719 152.886719 334.332031 152.886719 Z M 334.332031 152.886719 " fill-opacity="1" fill-rule="nonzero"/><path fill="#da0063" d="M 356.515625 152.785156 C 358.085938 152.785156 358.085938 150.351562 356.515625 150.351562 C 354.949219 150.351562 354.949219 152.785156 356.515625 152.785156 Z M 356.515625 152.785156 " fill-opacity="1" fill-rule="nonzero"/><g clip-path="url(#3934760aaa)"><path fill="#da0063" d="M 367.558594 171.878906 C 369.125 171.878906 369.128906 169.441406 367.558594 169.441406 C 365.992188 169.441406 365.992188 171.878906 367.558594 171.878906 Z M 367.558594 171.878906 " fill-opacity="1" fill-rule="nonzero"/></g><path fill="#da0063" d="M 356.320312 191.257812 C 357.886719 191.257812 357.890625 188.824219 356.320312 188.824219 C 354.753906 188.824219 354.753906 191.257812 356.320312 191.257812 Z M 356.320312 191.257812 " fill-opacity="1" fill-rule="nonzero"/><path fill="#da0063" d="M 334.234375 191.355469 C 335.800781 191.355469 335.804688 188.921875 334.234375 188.921875 C 332.664062 188.921875 332.664062 191.355469 334.234375 191.355469 Z M 334.234375 191.355469 " fill-opacity="1" fill-rule="nonzero"/><path fill="#da0063" d="M 323.191406 172.171875 C 324.757812 172.171875 324.761719 169.738281 323.191406 169.738281 C 321.621094 169.738281 321.621094 172.171875 323.191406 172.171875 Z M 323.191406 172.171875 " fill-opacity="1" fill-rule="nonzero"/><path fill="#da0063" d="M 342.871094 323.453125 L 342.273438 322.417969 L 341.078125 322.417969 L 341.078125 321.960938 L 342.539062 321.960938 L 343.265625 323.230469 Z M 342.871094 323.453125 " fill-opacity="1" fill-rule="nonzero"/><path fill="#da0063" d="M 338.292969 322.417969 L 335.425781 322.417969 L 335.425781 321.960938 L 338.292969 321.960938 Z M 332.558594 322.417969 L 329.695312 322.417969 L 329.695312 321.960938 L 332.558594 321.960938 Z M 326.828125 322.417969 L 323.960938 322.417969 L 323.960938 321.960938 L 326.828125 321.960938 Z M 326.828125 322.417969 " fill-opacity="1" fill-rule="nonzero"/><path fill="#da0063" d="M 319.789062 323.453125 L 319.394531 323.230469 L 320.121094 321.960938 L 321.578125 321.960938 L 321.578125 322.417969 L 320.382812 322.417969 Z M 319.789062 323.453125 " fill-opacity="1" fill-rule="nonzero"/><path fill="#da0063" d="M 311.226562 338.308594 L 310.832031 338.078125 L 312.265625 335.59375 L 312.660156 335.820312 Z M 314.09375 333.332031 L 313.699219 333.105469 L 315.132812 330.617188 L 315.527344 330.847656 Z M 316.960938 328.359375 L 316.566406 328.132812 L 318 325.644531 L 318.394531 325.871094 Z M 316.960938 328.359375 " fill-opacity="1" fill-rule="nonzero"/><path fill="#da0063" d="M 309.640625 342.671875 L 308.914062 341.410156 L 309.640625 340.144531 L 310.035156 340.371094 L 309.4375 341.410156 L 310.035156 342.445312 Z M 309.640625 342.671875 " fill-opacity="1" fill-rule="nonzero"/><path fill="#da0063" d="M 318.203125 357.523438 L 316.769531 355.039062 L 317.164062 354.808594 L 318.597656 357.296875 Z M 315.335938 352.550781 L 313.902344 350.0625 L 314.296875 349.835938 L 315.730469 352.324219 Z M 312.46875 347.578125 L 311.035156 345.089844 L 311.429688 344.863281 L 312.863281 347.351562 Z M 312.46875 347.578125 " fill-opacity="1" fill-rule="nonzero"/><path fill="#da0063" d="M 321.578125 360.855469 L 320.121094 360.855469 L 319.394531 359.589844 L 319.789062 359.363281 L 320.382812 360.398438 L 321.578125 360.398438 Z M 321.578125 360.855469 " fill-opacity="1" fill-rule="nonzero"/><path fill="#da0063" d="M 338.699219 360.855469 L 335.832031 360.855469 L 335.832031 360.398438 L 338.699219 360.398438 Z M 332.964844 360.855469 L 330.097656 360.855469 L 330.097656 360.398438 L 332.964844 360.398438 Z M 327.230469 360.855469 L 324.363281 360.855469 L 324.363281 360.398438 L 327.230469 360.398438 Z M 327.230469 360.855469 " fill-opacity="1" fill-rule="nonzero"/><path fill="#da0063" d="M 342.539062 360.855469 L 341.078125 360.855469 L 341.078125 360.398438 L 342.273438 360.398438 L 342.871094 359.363281 L 343.265625 359.589844 Z M 342.539062 360.855469 " fill-opacity="1" fill-rule="nonzero"/><path fill="#da0063" d="M 344.660156 357.175781 L 344.265625 356.945312 L 345.699219 354.460938 L 346.09375 354.6875 Z M 347.527344 352.199219 L 347.132812 351.972656 L 348.566406 349.484375 L 348.960938 349.714844 Z M 350.394531 347.226562 L 350 347 L 351.433594 344.511719 L 351.824219 344.738281 Z M 350.394531 347.226562 " fill-opacity="1" fill-rule="nonzero"/><path fill="#da0063" d="M 353.015625 342.671875 L 352.625 342.445312 L 353.21875 341.410156 L 352.625 340.371094 L 353.015625 340.144531 L 353.746094 341.410156 Z M 353.015625 342.671875 " fill-opacity="1" fill-rule="nonzero"/><path fill="#da0063" d="M 351.230469 337.957031 L 349.796875 335.46875 L 350.191406 335.242188 L 351.625 337.726562 Z M 348.363281 332.984375 L 346.929688 330.496094 L 347.324219 330.269531 L 348.757812 332.753906 Z M 345.496094 328.007812 L 344.0625 325.523438 L 344.457031 325.292969 L 345.890625 327.78125 Z M 345.496094 328.007812 " fill-opacity="1" fill-rule="nonzero"/><path fill="#da0063" d="M 320.21875 323.453125 C 321.785156 323.453125 321.785156 321.019531 320.21875 321.019531 C 318.648438 321.019531 318.648438 323.453125 320.21875 323.453125 Z M 320.21875 323.453125 " fill-opacity="1" fill-rule="nonzero"/><path fill="#da0063" d="M 342.402344 323.355469 C 343.96875 323.355469 343.96875 320.917969 342.402344 320.917969 C 340.832031 320.917969 340.832031 323.355469 342.402344 323.355469 Z M 342.402344 323.355469 " fill-opacity="1" fill-rule="nonzero"/><path fill="#da0063" d="M 353.445312 342.441406 C 355.011719 342.441406 355.015625 340.007812 353.445312 340.007812 C 351.875 340.007812 351.875 342.441406 353.445312 342.441406 Z M 353.445312 342.441406 " fill-opacity="1" fill-rule="nonzero"/><path fill="#da0063" d="M 342.207031 361.828125 C 343.773438 361.828125 343.777344 359.390625 342.207031 359.390625 C 340.636719 359.390625 340.636719 361.828125 342.207031 361.828125 Z M 342.207031 361.828125 " fill-opacity="1" fill-rule="nonzero"/><path fill="#da0063" d="M 320.121094 361.925781 C 321.6875 361.925781 321.6875 359.488281 320.121094 359.488281 C 318.550781 359.488281 318.550781 361.925781 320.121094 361.925781 Z M 320.121094 361.925781 " fill-opacity="1" fill-rule="nonzero"/><path fill="#da0063" d="M 309.078125 342.734375 C 310.644531 342.734375 310.644531 340.300781 309.078125 340.300781 C 307.507812 340.300781 307.507812 342.734375 309.078125 342.734375 Z M 309.078125 342.734375 " fill-opacity="1" fill-rule="nonzero"/><path fill="#da0063" d="M 172.644531 311.6875 L 172.050781 310.652344 L 170.851562 310.652344 L 170.851562 310.195312 L 172.3125 310.195312 L 173.039062 311.460938 Z M 172.644531 311.6875 " fill-opacity="1" fill-rule="nonzero"/><path fill="#da0063" d="M 168.066406 310.652344 L 165.199219 310.652344 L 165.199219 310.195312 L 168.066406 310.195312 Z M 162.335938 310.652344 L 159.46875 310.652344 L 159.46875 310.195312 L 162.335938 310.195312 Z M 156.601562 310.652344 L 153.734375 310.652344 L 153.734375 310.195312 L 156.601562 310.195312 Z M 156.601562 310.652344 " fill-opacity="1" fill-rule="nonzero"/><path fill="#da0063" d="M 149.5625 311.6875 L 149.167969 311.460938 L 149.894531 310.195312 L 151.355469 310.195312 L 151.355469 310.652344 L 150.160156 310.652344 Z M 149.5625 311.6875 " fill-opacity="1" fill-rule="nonzero"/><path fill="#da0063" d="M 141 326.539062 L 140.605469 326.3125 L 142.039062 323.824219 L 142.433594 324.054688 Z M 143.867188 321.566406 L 143.472656 321.339844 L 144.90625 318.851562 L 145.300781 319.078125 Z M 146.734375 316.59375 L 146.339844 316.363281 L 147.773438 313.878906 L 148.167969 314.105469 Z M 146.734375 316.59375 " fill-opacity="1" fill-rule="nonzero"/><path fill="#da0063" d="M 139.417969 330.90625 L 138.6875 329.640625 L 139.417969 328.378906 L 139.808594 328.605469 L 139.214844 329.640625 L 139.808594 330.679688 Z M 139.417969 330.90625 " fill-opacity="1" fill-rule="nonzero"/><path fill="#da0063" d="M 147.976562 345.757812 L 146.542969 343.269531 L 146.9375 343.042969 L 148.371094 345.53125 Z M 145.109375 340.785156 L 143.675781 338.296875 L 144.070312 338.070312 L 145.503906 340.554688 Z M 142.242188 335.8125 L 140.808594 333.324219 L 141.203125 333.097656 L 142.636719 335.582031 Z M 142.242188 335.8125 " fill-opacity="1" fill-rule="nonzero"/><path fill="#da0063" d="M 151.355469 349.085938 L 149.894531 349.085938 L 149.167969 347.824219 L 149.5625 347.59375 L 150.160156 348.632812 L 151.355469 348.632812 Z M 151.355469 349.085938 " fill-opacity="1" fill-rule="nonzero"/><path fill="#da0063" d="M 168.472656 349.085938 L 165.605469 349.085938 L 165.605469 348.632812 L 168.472656 348.632812 Z M 162.738281 349.085938 L 159.871094 349.085938 L 159.871094 348.632812 L 162.738281 348.632812 Z M 157.007812 349.085938 L 154.140625 349.085938 L 154.140625 348.632812 L 157.007812 348.632812 Z M 157.007812 349.085938 " fill-opacity="1" fill-rule="nonzero"/><path fill="#da0063" d="M 172.3125 349.085938 L 170.851562 349.085938 L 170.851562 348.632812 L 172.050781 348.632812 L 172.644531 347.59375 L 173.039062 347.824219 Z M 172.3125 349.085938 " fill-opacity="1" fill-rule="nonzero"/><path fill="#da0063" d="M 174.433594 345.40625 L 174.039062 345.175781 L 175.472656 342.691406 L 175.867188 342.917969 Z M 177.300781 340.429688 L 176.90625 340.203125 L 178.339844 337.71875 L 178.734375 337.945312 Z M 180.167969 335.457031 L 179.773438 335.230469 L 181.207031 332.742188 L 181.601562 332.972656 Z M 180.167969 335.457031 " fill-opacity="1" fill-rule="nonzero"/><path fill="#da0063" d="M 182.792969 330.90625 L 182.398438 330.679688 L 182.996094 329.640625 L 182.398438 328.605469 L 182.792969 328.378906 L 183.519531 329.640625 Z M 182.792969 330.90625 " fill-opacity="1" fill-rule="nonzero"/><path fill="#da0063" d="M 181.003906 326.1875 L 179.570312 323.699219 L 179.964844 323.472656 L 181.398438 325.960938 Z M 178.136719 321.214844 L 176.703125 318.726562 L 177.097656 318.5 L 178.53125 320.984375 Z M 175.269531 316.238281 L 173.835938 313.753906 L 174.230469 313.527344 L 175.664062 316.011719 Z M 175.269531 316.238281 " fill-opacity="1" fill-rule="nonzero"/><path fill="#da0063" d="M 149.992188 311.683594 C 151.558594 311.683594 151.5625 309.25 149.992188 309.25 C 148.421875 309.25 148.421875 311.683594 149.992188 311.683594 Z M 149.992188 311.683594 " fill-opacity="1" fill-rule="nonzero"/><path fill="#da0063" d="M 172.175781 311.585938 C 173.742188 311.585938 173.746094 309.152344 172.175781 309.152344 C 170.609375 309.152344 170.609375 311.585938 172.175781 311.585938 Z M 172.175781 311.585938 " fill-opacity="1" fill-rule="nonzero"/><path fill="#da0063" d="M 183.21875 330.675781 C 184.785156 330.675781 184.789062 328.242188 183.21875 328.242188 C 181.652344 328.242188 181.652344 330.675781 183.21875 330.675781 Z M 183.21875 330.675781 " fill-opacity="1" fill-rule="nonzero"/><path fill="#da0063" d="M 171.980469 350.058594 C 173.546875 350.058594 173.550781 347.625 171.980469 347.625 C 170.414062 347.625 170.414062 350.058594 171.980469 350.058594 Z M 171.980469 350.058594 " fill-opacity="1" fill-rule="nonzero"/><path fill="#da0063" d="M 149.894531 350.15625 C 151.460938 350.15625 151.464844 347.722656 149.894531 347.722656 C 148.324219 347.722656 148.324219 350.15625 149.894531 350.15625 Z M 149.894531 350.15625 " fill-opacity="1" fill-rule="nonzero"/><path fill="#da0063" d="M 138.851562 330.96875 C 140.417969 330.96875 140.421875 328.535156 138.851562 328.535156 C 137.28125 328.535156 137.28125 330.96875 138.851562 330.96875 Z M 138.851562 330.96875 " fill-opacity="1" fill-rule="nonzero"/><path fill="#da0063" d="M 304.683594 29.683594 L 304.085938 28.648438 L 302.890625 28.648438 L 302.890625 28.191406 L 304.351562 28.191406 L 305.078125 29.457031 Z M 304.683594 29.683594 " fill-opacity="1" fill-rule="nonzero"/><path fill="#da0063" d="M 300.105469 28.648438 L 297.238281 28.648438 L 297.238281 28.191406 L 300.105469 28.191406 Z M 294.371094 28.648438 L 291.507812 28.648438 L 291.507812 28.191406 L 294.371094 28.191406 Z M 288.640625 28.648438 L 285.773438 28.648438 L 285.773438 28.191406 L 288.640625 28.191406 Z M 288.640625 28.648438 " fill-opacity="1" fill-rule="nonzero"/><path fill="#da0063" d="M 281.601562 29.683594 L 281.207031 29.457031 L 281.933594 28.191406 L 283.390625 28.191406 L 283.390625 28.648438 L 282.195312 28.648438 Z M 281.601562 29.683594 " fill-opacity="1" fill-rule="nonzero"/><path fill="#da0063" d="M 273.039062 44.535156 L 272.644531 44.308594 L 274.078125 41.824219 L 274.472656 42.050781 Z M 275.90625 39.5625 L 275.511719 39.335938 L 276.945312 36.847656 L 277.339844 37.078125 Z M 278.773438 34.589844 L 278.378906 34.363281 L 279.8125 31.875 L 280.207031 32.101562 Z M 278.773438 34.589844 " fill-opacity="1" fill-rule="nonzero"/><path fill="#da0063" d="M 271.453125 48.902344 L 270.726562 47.640625 L 271.453125 46.375 L 271.847656 46.601562 L 271.25 47.640625 L 271.847656 48.675781 Z M 271.453125 48.902344 " fill-opacity="1" fill-rule="nonzero"/><path fill="#da0063" d="M 280.015625 63.753906 L 278.582031 61.269531 L 278.976562 61.039062 L 280.410156 63.527344 Z M 277.148438 58.78125 L 275.714844 56.292969 L 276.109375 56.066406 L 277.542969 58.554688 Z M 274.28125 53.808594 L 272.847656 51.320312 L 273.242188 51.09375 L 274.675781 53.578125 Z M 274.28125 53.808594 " fill-opacity="1" fill-rule="nonzero"/><path fill="#da0063" d="M 283.390625 67.085938 L 281.933594 67.085938 L 281.207031 65.816406 L 281.601562 65.59375 L 282.195312 66.628906 L 283.390625 66.628906 Z M 283.390625 67.085938 " fill-opacity="1" fill-rule="nonzero"/><path fill="#da0063" d="M 300.511719 67.085938 L 297.644531 67.085938 L 297.644531 66.628906 L 300.511719 66.628906 Z M 294.777344 67.085938 L 291.910156 67.085938 L 291.910156 66.628906 L 294.777344 66.628906 Z M 289.042969 67.085938 L 286.175781 67.085938 L 286.175781 66.628906 L 289.042969 66.628906 Z M 289.042969 67.085938 " fill-opacity="1" fill-rule="nonzero"/><path fill="#da0063" d="M 304.351562 67.085938 L 302.890625 67.085938 L 302.890625 66.628906 L 304.085938 66.628906 L 304.683594 65.59375 L 305.078125 65.816406 Z M 304.351562 67.085938 " fill-opacity="1" fill-rule="nonzero"/><path fill="#da0063" d="M 306.472656 63.402344 L 306.078125 63.175781 L 307.511719 60.6875 L 307.90625 60.914062 Z M 309.339844 58.429688 L 308.945312 58.199219 L 310.378906 55.714844 L 310.773438 55.941406 Z M 312.207031 53.453125 L 311.8125 53.226562 L 313.246094 50.742188 L 313.640625 50.96875 Z M 312.207031 53.453125 " fill-opacity="1" fill-rule="nonzero"/><path fill="#da0063" d="M 314.828125 48.902344 L 314.433594 48.675781 L 315.03125 47.640625 L 314.433594 46.601562 L 314.828125 46.375 L 315.558594 47.640625 Z M 314.828125 48.902344 " fill-opacity="1" fill-rule="nonzero"/><path fill="#da0063" d="M 313.042969 44.183594 L 311.609375 41.699219 L 312.003906 41.46875 L 313.4375 43.957031 Z M 310.175781 39.210938 L 308.742188 36.722656 L 309.136719 36.496094 L 310.570312 38.984375 Z M 307.308594 34.238281 L 305.875 31.75 L 306.269531 31.523438 L 307.703125 34.007812 Z M 307.308594 34.238281 " fill-opacity="1" fill-rule="nonzero"/><path fill="#da0063" d="M 282.03125 29.679688 C 283.597656 29.679688 283.597656 27.246094 282.03125 27.246094 C 280.460938 27.246094 280.460938 29.679688 282.03125 29.679688 Z M 282.03125 29.679688 " fill-opacity="1" fill-rule="nonzero"/><path fill="#da0063" d="M 304.214844 29.582031 C 305.78125 29.582031 305.78125 27.148438 304.214844 27.148438 C 302.644531 27.148438 302.644531 29.582031 304.214844 29.582031 Z M 304.214844 29.582031 " fill-opacity="1" fill-rule="nonzero"/><path fill="#da0063" d="M 315.257812 48.671875 C 316.824219 48.671875 316.828125 46.238281 315.257812 46.238281 C 313.6875 46.238281 313.6875 48.671875 315.257812 48.671875 Z M 315.257812 48.671875 " fill-opacity="1" fill-rule="nonzero"/><path fill="#da0063" d="M 304.019531 68.054688 C 305.585938 68.054688 305.589844 65.621094 304.019531 65.621094 C 302.449219 65.621094 302.449219 68.054688 304.019531 68.054688 Z M 304.019531 68.054688 " fill-opacity="1" fill-rule="nonzero"/><path fill="#da0063" d="M 281.933594 68.152344 C 283.5 68.152344 283.5 65.71875 281.933594 65.71875 C 280.363281 65.71875 280.363281 68.152344 281.933594 68.152344 Z M 281.933594 68.152344 " fill-opacity="1" fill-rule="nonzero"/><path fill="#da0063" d="M 270.890625 48.964844 C 272.457031 48.964844 272.457031 46.53125 270.890625 46.53125 C 269.320312 46.53125 269.320312 48.964844 270.890625 48.964844 Z M 270.890625 48.964844 " fill-opacity="1" fill-rule="nonzero"/><path fill="#da0063" d="M 107.789062 121.03125 L 107.191406 119.996094 L 105.996094 119.996094 L 105.996094 119.542969 L 107.453125 119.542969 L 108.183594 120.808594 Z M 107.789062 121.03125 " fill-opacity="1" fill-rule="nonzero"/><path fill="#da0063" d="M 103.210938 119.996094 L 100.34375 119.996094 L 100.34375 119.542969 L 103.210938 119.542969 Z M 97.476562 119.996094 L 94.609375 119.996094 L 94.609375 119.542969 L 97.476562 119.542969 Z M 91.742188 119.996094 L 88.878906 119.996094 L 88.878906 119.542969 L 91.742188 119.542969 Z M 91.742188 119.996094 " fill-opacity="1" fill-rule="nonzero"/><path fill="#da0063" d="M 84.703125 121.03125 L 84.308594 120.808594 L 85.039062 119.542969 L 86.496094 119.542969 L 86.496094 119.996094 L 85.300781 119.996094 Z M 84.703125 121.03125 " fill-opacity="1" fill-rule="nonzero"/><path fill="#da0063" d="M 76.140625 135.886719 L 75.75 135.65625 L 77.179688 133.171875 L 77.574219 133.398438 Z M 79.007812 130.910156 L 78.617188 130.683594 L 80.046875 128.195312 L 80.441406 128.425781 Z M 81.875 125.9375 L 81.484375 125.710938 L 82.914062 123.222656 L 83.308594 123.449219 Z M 81.875 125.9375 " fill-opacity="1" fill-rule="nonzero"/><path fill="#da0063" d="M 74.558594 140.25 L 73.832031 138.988281 L 74.558594 137.722656 L 74.953125 137.949219 L 74.355469 138.988281 L 74.953125 140.023438 Z M 74.558594 140.25 " fill-opacity="1" fill-rule="nonzero"/><path fill="#da0063" d="M 83.121094 155.101562 L 81.6875 152.617188 L 82.082031 152.386719 L 83.515625 154.875 Z M 80.253906 150.128906 L 78.820312 147.640625 L 79.214844 147.414062 L 80.648438 149.902344 Z M 77.386719 145.15625 L 75.953125 142.667969 L 76.347656 142.441406 L 77.78125 144.929688 Z M 77.386719 145.15625 " fill-opacity="1" fill-rule="nonzero"/><path fill="#da0063" d="M 86.496094 158.433594 L 85.039062 158.433594 L 84.308594 157.167969 L 84.703125 156.941406 L 85.300781 157.976562 L 86.496094 157.976562 Z M 86.496094 158.433594 " fill-opacity="1" fill-rule="nonzero"/><path fill="#da0063" d="M 103.617188 158.433594 L 100.75 158.433594 L 100.75 157.976562 L 103.617188 157.976562 Z M 97.882812 158.433594 L 95.015625 158.433594 L 95.015625 157.976562 L 97.882812 157.976562 Z M 92.148438 158.433594 L 89.28125 158.433594 L 89.28125 157.976562 L 92.148438 157.976562 Z M 92.148438 158.433594 " fill-opacity="1" fill-rule="nonzero"/><path fill="#da0063" d="M 107.453125 158.433594 L 105.996094 158.433594 L 105.996094 157.976562 L 107.191406 157.976562 L 107.789062 156.941406 L 108.183594 157.167969 Z M 107.453125 158.433594 " fill-opacity="1" fill-rule="nonzero"/><path fill="#da0063" d="M 109.574219 154.753906 L 109.179688 154.523438 L 110.613281 152.039062 L 111.007812 152.265625 Z M 112.441406 149.777344 L 112.046875 149.550781 L 113.480469 147.0625 L 113.875 147.292969 Z M 115.308594 144.804688 L 114.914062 144.578125 L 116.347656 142.089844 L 116.742188 142.316406 Z M 115.308594 144.804688 " fill-opacity="1" fill-rule="nonzero"/><path fill="#da0063" d="M 117.933594 140.25 L 117.539062 140.023438 L 118.136719 138.988281 L 117.539062 137.949219 L 117.933594 137.722656 L 118.660156 138.988281 Z M 117.933594 140.25 " fill-opacity="1" fill-rule="nonzero"/><path fill="#da0063" d="M 116.144531 135.535156 L 114.710938 133.046875 L 115.105469 132.820312 L 116.539062 135.304688 Z M 113.277344 130.5625 L 111.84375 128.074219 L 112.238281 127.847656 L 113.671875 130.332031 Z M 110.410156 125.585938 L 108.976562 123.101562 L 109.371094 122.871094 L 110.804688 125.359375 Z M 110.410156 125.585938 " fill-opacity="1" fill-rule="nonzero"/><path fill="#da0063" d="M 85.132812 121.03125 C 86.699219 121.03125 86.703125 118.597656 85.132812 118.597656 C 83.5625 118.597656 83.5625 121.03125 85.132812 121.03125 Z M 85.132812 121.03125 " fill-opacity="1" fill-rule="nonzero"/><path fill="#da0063" d="M 107.316406 120.933594 C 108.886719 120.933594 108.886719 118.5 107.316406 118.5 C 105.75 118.5 105.75 120.933594 107.316406 120.933594 Z M 107.316406 120.933594 " fill-opacity="1" fill-rule="nonzero"/><path fill="#da0063" d="M 118.359375 140.019531 C 119.925781 140.019531 119.929688 137.585938 118.359375 137.585938 C 116.792969 137.585938 116.792969 140.019531 118.359375 140.019531 Z M 118.359375 140.019531 " fill-opacity="1" fill-rule="nonzero"/><path fill="#da0063" d="M 107.121094 159.40625 C 108.6875 159.40625 108.691406 156.96875 107.121094 156.96875 C 105.554688 156.96875 105.554688 159.40625 107.121094 159.40625 Z M 107.121094 159.40625 " fill-opacity="1" fill-rule="nonzero"/><path fill="#da0063" d="M 85.035156 159.503906 C 86.601562 159.503906 86.605469 157.066406 85.035156 157.066406 C 83.464844 157.066406 83.464844 159.503906 85.035156 159.503906 Z M 85.035156 159.503906 " fill-opacity="1" fill-rule="nonzero"/><path fill="#da0063" d="M 73.992188 140.3125 C 75.558594 140.3125 75.5625 137.878906 73.992188 137.878906 C 72.421875 137.878906 72.421875 140.3125 73.992188 140.3125 Z M 73.992188 140.3125 " fill-opacity="1" fill-rule="nonzero"/><path fill="#da0063" d="M 192.925781 216.121094 L 166.902344 216.121094 L 166.835938 216.007812 L 153.886719 193.546875 L 153.953125 193.429688 L 166.902344 170.96875 L 192.925781 170.96875 L 192.992188 171.082031 L 205.9375 193.546875 L 205.871094 193.660156 Z M 167.164062 215.667969 L 192.660156 215.667969 L 205.410156 193.546875 L 192.660156 171.425781 L 167.164062 171.425781 L 154.414062 193.546875 Z M 167.164062 215.667969 " fill-opacity="1" fill-rule="nonzero"/><path fill="#da0063" d="M 166.992188 172.664062 C 168.8125 172.664062 168.816406 169.832031 166.992188 169.832031 C 165.167969 169.832031 165.167969 172.664062 166.992188 172.664062 Z M 166.992188 172.664062 " fill-opacity="1" fill-rule="nonzero"/><path fill="#da0063" d="M 192.789062 172.550781 C 194.609375 172.550781 194.613281 169.71875 192.789062 169.71875 C 190.964844 169.71875 190.964844 172.550781 192.789062 172.550781 Z M 192.789062 172.550781 " fill-opacity="1" fill-rule="nonzero"/><path fill="#da0063" d="M 205.632812 194.746094 C 207.453125 194.746094 207.457031 191.917969 205.632812 191.917969 C 203.808594 191.917969 203.808594 194.746094 205.632812 194.746094 Z M 205.632812 194.746094 " fill-opacity="1" fill-rule="nonzero"/><path fill="#da0063" d="M 192.5625 217.289062 C 194.382812 217.289062 194.386719 214.457031 192.5625 214.457031 C 190.738281 214.457031 190.738281 217.289062 192.5625 217.289062 Z M 192.5625 217.289062 " fill-opacity="1" fill-rule="nonzero"/><path fill="#da0063" d="M 166.878906 217.402344 C 168.699219 217.402344 168.703125 214.570312 166.878906 214.570312 C 165.054688 214.570312 165.054688 217.402344 166.878906 217.402344 Z M 166.878906 217.402344 " fill-opacity="1" fill-rule="nonzero"/><path fill="#da0063" d="M 154.035156 195.089844 C 155.855469 195.089844 155.859375 192.257812 154.035156 192.257812 C 152.210938 192.257812 152.210938 195.089844 154.035156 195.089844 Z M 154.035156 195.089844 " fill-opacity="1" fill-rule="nonzero"/><path fill="#da0063" d="M 334.164062 198.625 L 308.140625 198.625 L 308.074219 198.511719 L 295.125 176.046875 L 295.191406 175.933594 L 308.140625 153.46875 L 334.164062 153.46875 L 334.230469 153.582031 L 347.175781 176.046875 L 347.109375 176.160156 Z M 308.402344 198.167969 L 333.898438 198.167969 L 346.648438 176.046875 L 333.898438 153.925781 L 308.402344 153.925781 L 295.652344 176.046875 Z M 308.402344 198.167969 " fill-opacity="1" fill-rule="nonzero"/><path fill="#da0063" d="M 308.226562 155.164062 C 310.050781 155.164062 310.050781 152.332031 308.226562 152.332031 C 306.402344 152.332031 306.402344 155.164062 308.226562 155.164062 Z M 308.226562 155.164062 " fill-opacity="1" fill-rule="nonzero"/><path fill="#da0063" d="M 334.027344 155.050781 C 335.847656 155.050781 335.851562 152.21875 334.027344 152.21875 C 332.203125 152.21875 332.203125 155.050781 334.027344 155.050781 Z M 334.027344 155.050781 " fill-opacity="1" fill-rule="nonzero"/><path fill="#da0063" d="M 346.867188 177.25 C 348.691406 177.25 348.691406 174.417969 346.867188 174.417969 C 345.042969 174.417969 345.042969 177.25 346.867188 177.25 Z M 346.867188 177.25 " fill-opacity="1" fill-rule="nonzero"/><path fill="#da0063" d="M 333.800781 199.789062 C 335.621094 199.789062 335.625 196.960938 333.800781 196.960938 C 331.976562 196.960938 331.976562 199.789062 333.800781 199.789062 Z M 333.800781 199.789062 " fill-opacity="1" fill-rule="nonzero"/><path fill="#da0063" d="M 308.113281 199.902344 C 309.9375 199.902344 309.9375 197.074219 308.113281 197.074219 C 306.289062 197.074219 306.289062 199.902344 308.113281 199.902344 Z M 308.113281 199.902344 " fill-opacity="1" fill-rule="nonzero"/><path fill="#da0063" d="M 295.273438 177.589844 C 297.09375 177.589844 297.097656 174.761719 295.273438 174.761719 C 293.449219 174.761719 293.449219 177.589844 295.273438 177.589844 Z M 295.273438 177.589844 " fill-opacity="1" fill-rule="nonzero"/><path fill="#da0063" d="M 334.179688 362.179688 L 308.15625 362.179688 L 308.089844 362.066406 L 295.144531 339.601562 L 295.207031 339.488281 L 308.15625 317.027344 L 334.179688 317.027344 L 334.246094 317.140625 L 347.191406 339.601562 L 347.125 339.714844 Z M 308.417969 361.722656 L 333.914062 361.722656 L 346.664062 339.601562 L 333.914062 317.480469 L 308.417969 317.480469 L 295.667969 339.601562 Z M 308.417969 361.722656 " fill-opacity="1" fill-rule="nonzero"/><path fill="#da0063" d="M 308.246094 318.71875 C 310.066406 318.71875 310.070312 315.890625 308.246094 315.890625 C 306.421875 315.890625 306.421875 318.71875 308.246094 318.71875 Z M 308.246094 318.71875 " fill-opacity="1" fill-rule="nonzero"/><path fill="#da0063" d="M 334.042969 318.605469 C 335.863281 318.605469 335.867188 315.777344 334.042969 315.777344 C 332.21875 315.777344 332.21875 318.605469 334.042969 318.605469 Z M 334.042969 318.605469 " fill-opacity="1" fill-rule="nonzero"/><path fill="#da0063" d="M 346.886719 340.804688 C 348.707031 340.804688 348.710938 337.972656 346.886719 337.972656 C 345.0625 337.972656 345.0625 340.804688 346.886719 340.804688 Z M 346.886719 340.804688 " fill-opacity="1" fill-rule="nonzero"/><g clip-path="url(#fe98784b1f)"><path fill="#da0063" d="M 333.816406 363.347656 C 335.640625 363.347656 335.640625 360.515625 333.816406 360.515625 C 331.992188 360.515625 331.992188 363.347656 333.816406 363.347656 Z M 333.816406 363.347656 " fill-opacity="1" fill-rule="nonzero"/></g><g clip-path="url(#8c49bf15cf)"><path fill="#da0063" d="M 308.132812 363.460938 C 309.953125 363.460938 309.957031 360.628906 308.132812 360.628906 C 306.308594 360.628906 306.308594 363.460938 308.132812 363.460938 Z M 308.132812 363.460938 " fill-opacity="1" fill-rule="nonzero"/></g><path fill="#da0063" d="M 295.289062 341.144531 C 297.113281 341.144531 297.113281 338.316406 295.289062 338.316406 C 293.464844 338.316406 293.464844 341.144531 295.289062 341.144531 Z M 295.289062 341.144531 " fill-opacity="1" fill-rule="nonzero"/></svg>